<svg version="1" xmlns="http://www.w3.org/2000/svg" width="1066.667" height="1066.667" viewBox="0 0 800.000000 800.000000"><path d="M38.8 1.6C20.3 6 5.9 20.5 1.5 39.2c-2.2 9.4-2.2 710.7 0 721.1 4 18.9 19.3 34.2 38.2 38.2 10.2 2.2 710.4 2.2 720.6 0 18.9-4 34.2-19.3 38.2-38.2 2.2-10.4 2.2-711.7 0-721.1C794 20.3 779.7 6 760.8 1.5c-9.2-2.1-713.1-2.1-722 .1zm381.7 27.3l5 1.8 11.1 29.4c6.2 16.2 32.6 86.1 58.9 155.4 170.1 449.4 166.1 438.8 179.2 470 4.2 9.9 8.9 19.9 10.5 22.2 3.6 5.3 9.7 10.6 17.4 14.9 12.5 7 41.7 16.4 51 16.4 6.3 0 7.6 2.4 8.2 15.3.2 6.1 0 11.9-.7 14.5l-1.2 4.4-8.2-.6c-4.5-.4-27.8-1.5-51.7-2.6-23.9-1.1-47.3-2.2-52-2.4-4.7-.3-38.4.8-75 2.4-75.4 3.3-68 3.9-70.1-5.8-1.2-5.9-.6-15.8 1.2-21.1 1.2-3.5 1.9-3.7 12.9-4.5 8.8-.6 26.3-4.9 33.8-8.2 11.4-5 13.7-8.1 15.3-20.3 1.6-13.2-2.7-45.3-9.1-67.5-1.1-3.8-13-37.6-26.6-75-19.7-54.4-25.2-68.6-27.4-70.7-2.5-2.4-3.7-2.7-14.1-3.3-61.1-3.7-99.3-3.5-184.4 1-24.6 1.3-31.7 2-34.4 3.3-3.3 1.6-4 3.3-26.8 61.6-28.4 72.9-36.3 96.1-41.3 122.2-3.4 17.9-2.4 29.2 3.4 36.8 3 3.9 13.5 9.5 24.2 12.8 10.4 3.3 33 7.7 39.3 7.7 3.1 0 5.3.5 6.1 1.5 1.9 2.3 3.1 17.6 2.1 25.1-.6 3.7-1.1 6.8-1.3 7-.2.1-22.4-.9-49.3-2.3-27-1.4-59.8-2.6-73-2.6-20 0-68.8 2.3-102.7 4.8l-7.7.6-1.7-3.3c-2-3.7-3-16.2-2-23.2 1-6.2 2.6-7.6 9.1-7.6 11.5 0 35.1-5.8 45.8-11.1 8.3-4.2 12.6-8.6 20.5-20.7 13.7-21 26.5-47.9 44.6-93.3C199 514 356.1 108.5 361.8 91.5c9.4-28.3 16.6-42.4 27.5-53.6 5.8-6 10.2-8.5 17-9.8 6.2-1.3 8.7-1.1 14.2.8z"/><path d="M388 185.6c-.6 1.6-12.8 33.3-27.2 70.4-14.3 37.1-35.2 91.3-46.4 120.3-11.2 29.1-20.4 53.9-20.4 55.2 0 2.2.5 2.4 7.3 2.9 27.6 2.4 121.5 2.1 159.6-.3 16.6-1.1 18.5-1.8 17.8-7.1-.3-2.3-88.4-243-89.3-243.9-.2-.2-.8.9-1.4 2.5z"/></svg>